<svg width="1417" height="1290" viewBox="0 0 1417 1290" fill="none" xmlns="http://www.w3.org/2000/svg">
<path d="M1173.08 234.663C1179.75 239.23 1187.95 240.964 1195.89 239.485C1203.83 238.005 1210.86 233.434 1215.46 226.768L1347 34.4319L1296.76 0L1165.22 192.336C1160.73 199.017 1159.05 207.198 1160.52 215.115C1161.99 223.033 1166.5 230.053 1173.08 234.663Z" fill="#68F285"/>
<path d="M1176.51 230.761C1181.76 234.382 1188.22 235.761 1194.47 234.596C1200.72 233.432 1206.26 229.818 1209.87 224.549L1294 101.332L1254.29 74L1170.16 197.173C1166.58 202.474 1165.23 208.991 1166.42 215.29C1167.61 221.588 1171.24 227.153 1176.51 230.761Z" fill="#836CC4"/>
<path d="M253.898 1028.14C254.266 1031.48 253.634 1034.86 252.083 1037.84C250.532 1040.83 248.13 1043.28 245.183 1044.9C242.235 1046.52 238.873 1047.23 235.523 1046.94C232.173 1046.64 228.984 1045.36 226.361 1043.26C223.738 1041.15 221.798 1038.32 220.787 1035.11C219.776 1031.9 219.738 1028.47 220.68 1025.24C221.621 1022.01 223.498 1019.13 226.075 1016.97C228.652 1014.81 231.811 1013.46 235.154 1013.1C239.631 1012.62 244.116 1013.93 247.627 1016.75C251.139 1019.57 253.393 1023.66 253.898 1028.14Z" fill="#68F285"/>
<path d="M222.084 1105H221.519C221.02 1104.88 220.586 1104.58 220.31 1104.14C220.033 1103.71 219.937 1103.18 220.041 1102.67L234.778 1028.95C234.857 1028.55 235.06 1028.18 235.357 1027.91C235.654 1027.63 236.029 1027.46 236.43 1027.41L330.894 1017.01C331.145 1016.98 331.399 1017.01 331.64 1017.09C331.882 1017.16 332.106 1017.28 332.3 1017.45C332.494 1017.61 332.654 1017.81 332.771 1018.04C332.888 1018.26 332.959 1018.51 332.981 1018.76C333.017 1019.02 333.002 1019.27 332.935 1019.52C332.867 1019.77 332.751 1020 332.591 1020.19C332.432 1020.39 332.233 1020.55 332.009 1020.67C331.784 1020.79 331.538 1020.86 331.285 1020.87L238.256 1031.14L223.823 1103.46C223.732 1103.87 223.515 1104.24 223.202 1104.52C222.889 1104.79 222.498 1104.96 222.084 1105Z" fill="#68F285"/>
<path d="M236.12 1032C235.856 1032 235.596 1031.94 235.354 1031.83C235.113 1031.73 234.895 1031.57 234.713 1031.38L188.562 982.312C188.202 981.948 188 981.455 188 980.941C188 980.427 188.202 979.934 188.562 979.569C188.931 979.204 189.428 979 189.946 979C190.464 979 190.961 979.204 191.331 979.569L237.439 1028.64C237.798 1029 238 1029.5 238 1030.01C238 1030.52 237.798 1031.02 237.439 1031.38C237.27 1031.57 237.067 1031.72 236.841 1031.82C236.614 1031.93 236.369 1031.99 236.12 1032Z" fill="#68F285"/>
<path d="M245.961 1105.61C246.126 1107.48 245.766 1109.35 244.925 1111C244.084 1112.65 242.8 1114 241.234 1114.88C239.668 1115.76 237.891 1116.14 236.125 1115.95C234.359 1115.77 232.683 1115.04 231.309 1113.86C229.934 1112.67 228.922 1111.09 228.399 1109.3C227.877 1107.51 227.867 1105.59 228.371 1103.8C228.876 1102 229.872 1100.4 231.234 1099.2C232.596 1098 234.264 1097.25 236.028 1097.05C237.214 1096.92 238.411 1097.04 239.553 1097.4C240.695 1097.76 241.758 1098.36 242.681 1099.15C243.604 1099.95 244.369 1100.93 244.932 1102.04C245.494 1103.14 245.844 1104.36 245.961 1105.61Z" fill="#68F285"/>
<path d="M377.288 1122.75C381.126 1119.1 381.277 1113.02 377.624 1109.18C373.971 1105.34 367.898 1105.19 364.059 1108.85C360.22 1112.5 360.07 1118.58 363.723 1122.42C367.376 1126.26 373.449 1126.41 377.288 1122.75Z" fill="#68F285"/>
<path d="M342.959 1019.07C343.133 1021.03 342.753 1023 341.865 1024.74C340.977 1026.48 339.622 1027.9 337.969 1028.82C336.316 1029.75 334.44 1030.14 332.576 1029.95C330.712 1029.76 328.943 1028.99 327.492 1027.75C326.041 1026.5 324.973 1024.83 324.421 1022.95C323.87 1021.06 323.859 1019.05 324.392 1017.16C324.924 1015.27 325.976 1013.58 327.414 1012.32C328.852 1011.06 330.612 1010.27 332.474 1010.06C333.726 1009.92 334.993 1010.04 336.2 1010.41C337.408 1010.79 338.532 1011.42 339.508 1012.25C340.483 1013.09 341.291 1014.13 341.883 1015.3C342.475 1016.47 342.841 1017.75 342.959 1019.07Z" fill="#68F285"/>
<path d="M194.961 976.612C195.126 978.477 194.766 980.352 193.925 982.002C193.084 983.651 191.8 985.002 190.234 985.883C188.668 986.764 186.891 987.137 185.125 986.955C183.359 986.773 181.683 986.044 180.309 984.859C178.934 983.674 177.922 982.087 177.399 980.297C176.877 978.506 176.867 976.593 177.371 974.797C177.876 973.001 178.872 971.402 180.234 970.202C181.596 969.002 183.264 968.253 185.028 968.051C186.214 967.921 187.411 968.04 188.553 968.4C189.695 968.76 190.758 969.355 191.681 970.151C192.604 970.946 193.369 971.927 193.932 973.036C194.494 974.144 194.844 975.36 194.961 976.612Z" fill="#68F285"/>
<path d="M357.063 1116.82L221.794 1106.3C221.541 1106.28 221.295 1106.21 221.068 1106.1C220.842 1105.98 220.639 1105.83 220.473 1105.63C220.307 1105.44 220.18 1105.21 220.1 1104.97C220.019 1104.72 219.987 1104.47 220.005 1104.21C220.008 1103.94 220.067 1103.68 220.178 1103.44C220.289 1103.2 220.449 1102.99 220.647 1102.82C220.845 1102.64 221.077 1102.52 221.328 1102.44C221.578 1102.37 221.841 1102.35 222.099 1102.39L354.532 1112.69L331.536 1019.43C331.415 1018.93 331.496 1018.39 331.762 1017.95C332.028 1017.5 332.457 1017.18 332.954 1017.06C333.452 1016.93 333.977 1017.02 334.415 1017.29C334.853 1017.56 335.167 1017.99 335.289 1018.5L358.939 1114.56C359.013 1114.85 359.02 1115.15 358.96 1115.44C358.9 1115.74 358.774 1116.01 358.593 1116.25C358.411 1116.49 358.179 1116.68 357.914 1116.81C357.648 1116.94 357.357 1117 357.063 1117V1116.82Z" fill="#68F285"/>
<path d="M461.04 332C460.411 331.994 459.789 331.876 459.202 331.651C458.612 331.41 458.076 331.054 457.625 330.605C457.175 330.156 456.818 329.622 456.576 329.035L434.692 277.138C396.308 261.482 339.848 237.889 320.372 191.574C309.84 163.51 310.619 132.472 322.545 104.967C334.472 77.4619 356.621 55.6244 384.35 44.0314C412.078 32.4385 443.234 31.99 471.287 42.7801C499.34 53.5701 522.113 74.7611 534.832 101.911C552.339 143.603 534.088 193.493 519.382 233.441C518.2 236.711 517.019 239.895 515.881 242.991L537.764 295.018C538.26 296.199 538.266 297.526 537.782 298.711C537.299 299.896 536.364 300.842 535.182 301.342L462.66 331.608C462.146 331.83 461.599 331.963 461.04 332ZM428.127 40.9878C410.588 40.9774 393.317 45.2732 377.841 53.4953C362.364 61.7173 349.159 73.6123 339.394 88.1285C329.628 102.645 323.602 119.335 321.85 136.723C320.097 154.112 322.671 171.663 329.344 187.824C347.595 231.129 403.355 253.894 440.251 268.939C440.838 269.173 441.372 269.521 441.823 269.963C442.274 270.405 442.632 270.932 442.877 271.512L463.622 320.836L527.216 294.233L506.514 244.954C506.075 243.832 506.075 242.587 506.514 241.465C507.871 237.758 509.272 233.964 510.891 230.082C525.028 191.662 542.623 143.821 526.516 105.575C518.354 86.3288 504.653 69.9232 487.142 58.4285C469.631 46.9337 449.096 40.8648 428.127 40.9878Z" fill="#68F285"/>
<path d="M480.563 311.969C480.197 311.97 479.839 311.862 479.534 311.658C479.23 311.454 478.993 311.164 478.853 310.824L425.438 177.822C424.078 178.262 422.675 178.614 421.315 178.966C409.211 181.96 391.757 183.061 377.46 171.35C369.566 164.834 366.102 157.834 367.198 150.614C370.048 132.035 402.282 118.915 403.466 118.387C403.685 118.293 403.92 118.244 404.158 118.241C404.396 118.239 404.631 118.285 404.852 118.375C405.072 118.465 405.272 118.598 405.441 118.766C405.61 118.935 405.743 119.135 405.834 119.355L427.455 173.287C432.121 171.614 436.639 169.553 440.962 167.124C430.262 141.412 421.841 121.028 419.035 114.292C418.858 113.848 418.859 113.352 419.039 112.908C419.219 112.465 419.563 112.109 420 111.915C445.918 100.38 463.855 105.003 472.406 113.236C475.394 116.098 477.421 119.822 478.207 123.893C478.993 127.963 478.498 132.178 476.792 135.953C471.661 148.104 459.82 160.211 445.611 168.796C463.372 211.546 486.879 267.767 501 301.623L497.667 303.076C483.589 269.308 460.215 213.351 442.453 170.646C438.102 173.049 433.571 175.11 428.902 176.809L482.23 309.591C482.322 309.814 482.369 310.052 482.369 310.293C482.368 310.534 482.319 310.772 482.225 310.993C482.131 311.215 481.994 311.415 481.821 311.583C481.649 311.75 481.445 311.882 481.221 311.969C481.004 312.01 480.781 312.01 480.563 311.969ZM403.247 122.657C396.669 125.563 373.075 137.054 370.926 151.318C370.005 157.218 373.031 163.073 379.697 168.708C392.853 179.495 408.948 178.394 420.263 175.621L423.903 174.608L403.247 122.657ZM423.245 114.601C426.49 122.657 434.384 141.765 444.208 165.451C456.785 158.329 466.956 147.598 473.415 134.632C474.878 131.559 475.339 128.102 474.733 124.751C474.127 121.4 472.484 118.326 470.038 115.965C463.065 108.833 446.707 104.519 423.245 114.425V114.601Z" fill="#68F285"/>
<path d="M518.971 261.105L446.107 291.659C440.307 294.091 437.576 300.766 440.007 306.569L461.32 357.444C463.751 363.247 470.423 365.979 476.223 363.547L549.087 332.993C554.887 330.561 557.618 323.886 555.187 318.083L533.874 267.208C531.443 261.405 524.771 258.673 518.971 261.105Z" fill="#836CC4"/>
<path d="M475 359.205L512.439 361.965C514.539 362.12 516.643 361.755 518.585 360.9C520.527 360.046 522.252 358.725 523.623 357.043L548 327L475 359.205Z" fill="#836CC4"/>
<path d="M463.179 302C462.944 301.994 462.717 301.919 462.523 301.785C462.329 301.651 462.177 301.463 462.085 301.244C461.969 300.943 461.972 300.607 462.094 300.308C462.217 300.009 462.449 299.77 462.741 299.643L534.327 269.087C534.623 268.968 534.953 268.971 535.247 269.096C535.541 269.22 535.775 269.456 535.901 269.754C535.965 269.902 535.999 270.063 536 270.225C536.001 270.387 535.97 270.547 535.909 270.697C535.848 270.847 535.757 270.982 535.643 271.095C535.529 271.208 535.394 271.297 535.245 271.355L463.66 301.911L463.179 302Z" fill="#EDEDEF"/>
<path d="M449.208 327.971C448.97 327.977 448.735 327.913 448.537 327.788C448.34 327.664 448.189 327.485 448.106 327.278C448.041 327.144 448.005 327 448 326.853C447.996 326.706 448.023 326.56 448.081 326.423C448.138 326.286 448.225 326.161 448.335 326.056C448.446 325.95 448.578 325.866 448.724 325.809L507.136 303.16C507.287 303.077 507.455 303.025 507.63 303.007C507.804 302.989 507.98 303.006 508.147 303.056C508.314 303.106 508.467 303.189 508.597 303.298C508.727 303.407 508.83 303.541 508.899 303.69C508.969 303.839 509.003 304 509 304.163C508.997 304.325 508.956 304.485 508.881 304.631C508.806 304.778 508.698 304.909 508.565 305.014C508.431 305.119 508.275 305.196 508.106 305.241L449.693 327.971C449.534 328.01 449.367 328.01 449.208 327.971Z" fill="#EDEDEF"/>
<path d="M488.21 331C487.97 331.002 487.736 330.933 487.536 330.801C487.335 330.67 487.178 330.482 487.084 330.261C486.969 329.966 486.972 329.638 487.093 329.345C487.214 329.053 487.444 328.82 487.734 328.695L548.314 303.076C548.614 302.968 548.943 302.975 549.239 303.096C549.534 303.216 549.775 303.441 549.916 303.728C550.031 304.023 550.028 304.351 549.907 304.644C549.786 304.936 549.556 305.169 549.266 305.294L488.469 330.913C488.388 330.957 488.301 330.987 488.21 331Z" fill="#EDEDEF"/>
<path d="M488.171 359.997C487.938 360.005 487.709 359.94 487.514 359.81C487.319 359.68 487.168 359.493 487.082 359.272C486.97 358.984 486.973 358.662 487.09 358.376C487.208 358.089 487.43 357.86 487.71 357.738L524.41 342.096C524.55 342.034 524.701 342.001 524.853 342C525.006 341.999 525.157 342.029 525.298 342.089C525.439 342.148 525.567 342.236 525.673 342.348C525.78 342.459 525.863 342.591 525.918 342.736C526.03 343.024 526.027 343.346 525.91 343.632C525.792 343.919 525.57 344.148 525.29 344.27L488.59 359.912C488.461 359.981 488.316 360.01 488.171 359.997Z" fill="#EDEDEF"/>
<path d="M613.563 1054.33L609 1259H1161L1084.18 1046L613.563 1054.33Z" fill="#725EA9"/>
<path d="M1108.75 1132.54C1108.75 1132.54 726.57 1228.13 642.292 1147.99C571.803 962.489 635.155 460.092 635.155 460.092C635.155 460.092 688.947 422.581 793.755 407.568C844.102 400.29 895.147 399.055 945.791 403.891C995.921 408.703 1045.26 419.671 1092.67 436.544C1135.49 653.47 1108.75 1132.54 1108.75 1132.54Z" fill="#301F5F"/>
<path d="M945 403.868C922.378 431.396 885.58 468.087 850.532 468C822.003 468 802.62 429.312 794 407.515C844.004 400.295 894.701 399.071 945 403.868Z" fill="#E78978"/>
<path d="M850.683 495C820.037 495 794.383 461.228 793.332 459.774C793.22 459.672 793.132 459.546 793.075 459.406C793.017 459.266 792.993 459.116 793.002 458.965C793.011 458.815 793.054 458.669 793.127 458.536C793.201 458.404 793.303 458.289 793.427 458.2C793.552 458.111 793.694 458.049 793.845 458.02C793.997 457.99 794.152 457.994 794.302 458.03C794.452 458.066 794.592 458.134 794.711 458.228C794.831 458.323 794.928 458.442 794.996 458.577C795.258 458.919 821.263 492.777 850.683 492.777C868.632 492.777 900.109 475.677 900.416 475.677C900.659 475.541 900.949 475.505 901.22 475.577C901.491 475.65 901.721 475.824 901.86 476.062C902 476.3 902.037 476.582 901.963 476.847C901.889 477.112 901.71 477.337 901.467 477.473C900.153 478.157 869.157 494.957 850.683 495Z" fill="#EDEDEF"/>
<path d="M311.774 459.81C315.112 464.86 281.034 492.59 235.494 521.671C189.955 550.751 150.563 570.254 147.226 565.204C143.888 560.154 177.966 532.423 223.506 503.3C269.045 474.176 308.612 454.717 311.774 459.81Z" fill="#836CC4"/>
<path d="M274.013 534.053C275.897 546.509 275.415 489.58 269.632 468.484C263.542 445.634 238.964 401.468 218.986 388.705C182.009 364.933 56.6195 366.074 43.7388 374.451C30.8582 382.828 55.3926 396.38 55.3926 396.38L128.558 412.915L129.04 415.459C129.04 415.459 53.9908 405.327 44.8341 407.169C35.6775 409.011 53.2897 437.344 65.2503 439.362C74.3631 440.897 125.623 443.967 138.416 445.151V446.906C138.416 446.906 57.2328 446.642 57.2328 453.879C57.2328 461.116 65.9952 476.247 75.5023 476.379C88.6459 476.642 139.862 480.37 139.862 480.37V482.3C120.628 482.3 86.2361 486.203 82.9064 488.703C82.9064 498.659 91.9755 502.124 105.557 504.931C112.041 506.29 154.451 507.343 159.621 507.518L160.76 553C160.76 553 274.013 533.965 274.013 534.053Z" fill="#E78978"/>
<path d="M622.232 459.219C671.839 471.148 646.642 663.067 646.642 663.067L659 717.845C659 717.845 477.428 917 387.996 917C285.812 902.352 149 565.617 149 565.617C149 565.617 255.9 532.417 312.93 459C337.996 513.778 368.258 616.579 409 675.523C419.349 690.478 436.948 694.206 451.009 681.531C509.175 629.166 599.699 468.078 622.232 459.219Z" fill="#EDEDEF"/>
<path d="M605.961 681L615 763.481C615 763.481 569.145 806.589 518 850L605.961 681Z" fill="#302061"/>
<path d="M177.058 615C176.842 614.997 176.631 614.928 176.453 614.803C176.276 614.677 176.14 614.5 176.062 614.295C176.015 614.165 175.994 614.026 176.002 613.888C176.009 613.749 176.044 613.614 176.105 613.49C176.166 613.366 176.251 613.256 176.356 613.167C176.46 613.078 176.581 613.012 176.711 612.972C177.664 612.619 272.01 579.025 327.153 513.381C327.331 513.164 327.586 513.029 327.863 513.004C328.139 512.979 328.414 513.067 328.626 513.248C328.839 513.43 328.972 513.689 328.996 513.971C329.02 514.252 328.934 514.531 328.756 514.747C273.093 580.877 178.314 614.647 177.404 614.956L177.058 615Z" fill="#836CC4"/>
<path d="M248.551 530.4L184.651 481.912V343.406H187.671C190.642 343.406 193.492 342.226 195.593 340.125C197.695 338.024 198.875 335.174 198.875 332.203C198.875 329.232 197.695 326.382 195.593 324.281C193.492 322.18 190.642 321 187.671 321H107.709C104.737 321 101.887 322.18 99.7861 324.281C97.6849 326.382 96.5044 329.232 96.5044 332.203C96.5044 335.174 97.6849 338.024 99.7861 340.125C101.887 342.226 104.737 343.406 107.709 343.406H110.904V481.956L46.8289 530.4C35.9467 538.665 27.6047 549.82 22.753 562.593C17.9013 575.367 16.7351 589.247 19.3872 602.651C19.3987 608.052 21.5526 613.228 25.3762 617.042C29.1999 620.857 34.3809 623 39.7825 623H255.597C260.999 623 266.18 620.857 270.003 617.042C273.827 613.228 275.981 608.052 275.992 602.651C275.992 602.651 277.218 555.476 248.551 530.4Z" fill="#68F285"/>
<path d="M40.5071 614C38.1084 614 35.808 613.04 34.1119 611.331C32.4157 609.621 31.4628 607.303 31.4628 604.886V603.521L31.1134 602.2C28.9381 590.869 29.9636 579.149 34.0729 568.376C38.1823 557.603 45.2106 548.209 54.3576 541.263L122.605 489.044V423H173.812V489.044L241.797 540.955C265.783 562.265 264.997 604.049 264.997 604.446V604.798C264.997 607.215 264.044 609.533 262.348 611.243C260.652 612.952 258.351 613.912 255.953 613.912L40.5071 614Z" fill="#836CC4"/>
<path d="M197.017 407C194.594 407.679 111.716 409.928 109.205 413.705C106.693 417.482 127.93 440.609 138.945 442.221C144.321 442.985 199 453 199 453L197.017 407Z" fill="#E78978"/>
<path d="M824.655 317.109L814 421.085C814 421.085 901.309 444.829 925.128 422.277C930.544 417.113 922.486 298 922.486 298L824.655 317.109Z" fill="#E78978"/>
<path d="M821.53 344.78C838.191 345.181 881 331 881 331C881 331 863.159 360.878 820 364C820.394 358.782 821.049 352.45 821.53 344.78Z" fill="#2E2E2E"/>
<path d="M789.283 174C789.283 174 747.792 314.727 793.384 339.442C838.976 364.156 923.987 311.058 923.987 311.058L953 193.586L789.283 174Z" fill="#E78978"/>
<path d="M793.967 236.107C794.129 237.726 793.689 239.348 792.737 240.634C791.786 241.919 790.397 242.767 788.863 243C786.109 243 783.921 239.766 784.002 235.894C784.083 232.022 786.352 228.958 789.106 229C791.861 229.043 794.21 232.447 793.967 236.107Z" fill="#836CC4"/>
<path d="M843.96 241.091C844.155 242.479 843.628 243.87 842.49 244.972C841.353 246.073 839.693 246.8 837.86 247C834.567 247 831.952 244.265 832.001 240.946C832.049 237.626 834.809 234.964 838.15 235C841.491 235.037 844.057 237.772 843.96 241.091Z" fill="#836CC4"/>
<path d="M806.454 278.989C803.983 279.083 801.527 278.575 799.307 277.513C797.087 276.45 795.173 274.865 793.738 272.902C791.778 270.192 794.057 268.148 796.655 265.793C799.945 263.141 802.606 259.826 804.455 256.075C806.304 252.324 807.297 248.227 807.366 244.066C807.366 243.784 807.481 243.512 807.686 243.312C807.891 243.112 808.169 243 808.46 243C808.75 243 809.028 243.112 809.233 243.312C809.438 243.512 809.553 243.784 809.553 244.066C809.455 248.504 808.383 252.87 806.41 256.87C804.436 260.871 801.608 264.413 798.114 267.259C795.379 269.747 794.741 270.503 795.516 271.702C801.441 279.833 812.425 276.145 812.516 275.923C812.788 275.834 813.085 275.849 813.347 275.964C813.609 276.079 813.817 276.287 813.929 276.545C813.98 276.677 814.004 276.816 813.999 276.957C813.995 277.097 813.963 277.235 813.903 277.363C813.844 277.491 813.759 277.607 813.654 277.703C813.549 277.799 813.426 277.873 813.291 277.923C811.088 278.645 808.778 279.005 806.454 278.989Z" fill="#836CC4"/>
<path d="M803.307 297.994C800.274 298.065 797.268 297.499 794.568 296.347C794.44 296.297 794.326 296.224 794.234 296.134C794.143 296.044 794.075 295.939 794.037 295.825C793.999 295.712 793.99 295.592 794.012 295.476C794.034 295.359 794.085 295.248 794.163 295.149C794.229 295.047 794.319 294.956 794.428 294.883C794.537 294.81 794.663 294.756 794.797 294.725C794.932 294.694 795.073 294.685 795.212 294.7C795.351 294.715 795.484 294.753 795.605 294.812C796.055 295.037 806.866 299.866 820.199 290.246C820.4 290.088 820.666 290 820.943 290C821.219 290 821.485 290.088 821.686 290.246C821.785 290.326 821.864 290.422 821.918 290.528C821.972 290.634 822 290.748 822 290.864C822 290.979 821.972 291.093 821.918 291.199C821.864 291.305 821.785 291.401 821.686 291.481C816.753 295.482 810.197 297.805 803.307 297.994Z" fill="#836CC4"/>
<path d="M948.334 160.761C939.607 131.005 909.804 139.782 908.103 136.974C899.376 122.535 881.66 117.575 865.515 122.14C855.828 124.861 848.061 126.836 832.876 112.002C823.32 102.653 782.304 99.6252 767.904 122.491C732.517 178.623 773.228 193.062 795.438 199.426C808.048 203.068 821.619 198.943 834.709 198.899C847.8 198.855 862.286 202.279 869.966 213.031C874.329 218.868 875.857 226.197 881.049 231.332C889.34 239.276 903.477 237.915 911.986 245.683C919.229 252.31 920.058 263.238 919.666 273.289C919.303 283.032 918.282 292.739 916.611 302.342C915.39 307.142 915.094 312.133 915.739 317.045C916.122 319.479 917.241 321.736 918.942 323.511C920.644 325.285 922.846 326.49 925.251 326.963C932.582 327.622 937.251 319.283 939.083 312.085C940.789 305.493 941.827 298.744 942.181 291.941C942.443 283.427 995.808 168.968 948.334 160.761Z" fill="#302061"/>
<path d="M897 252.572C897.79 252.572 904.241 237.205 919.383 240.45C932.857 243.334 932.857 266.316 928.161 271.182C913.765 286.278 899.809 284.972 899.809 284.972L897 252.572Z" fill="#E78978"/>
<path d="M922.332 266.998C922.033 266.958 921.765 266.82 921.585 266.615C921.405 266.409 921.328 266.152 921.369 265.899C922.043 261.462 921.369 258.491 918.867 257.026C914.632 254.339 906.693 257.27 906.596 257.311C906.315 257.405 906.002 257.403 905.723 257.304C905.444 257.205 905.222 257.017 905.104 256.781C905.041 256.667 905.006 256.543 905.001 256.416C904.996 256.29 905.02 256.164 905.074 256.046C905.128 255.928 905.21 255.821 905.315 255.73C905.419 255.64 905.544 255.568 905.682 255.52C906.067 255.52 914.921 252.1 920.118 255.52C921.767 256.883 922.953 258.595 923.554 260.478C924.155 262.36 924.148 264.345 923.535 266.225C923.477 266.454 923.324 266.659 923.103 266.801C922.883 266.943 922.609 267.013 922.332 266.998Z" fill="#836CC4"/>
<path d="M910.022 266.994C909.761 267 909.507 266.903 909.313 266.722C909.214 266.62 909.135 266.5 909.081 266.368C909.028 266.235 909 266.093 909 265.95C909 265.806 909.028 265.664 909.081 265.531C909.135 265.399 909.214 265.279 909.313 265.177C909.792 264.693 910.312 264.252 910.865 263.86C914.093 261.671 916.561 258.49 917.915 254.774C917.997 254.497 918.183 254.265 918.432 254.128C918.682 253.992 918.974 253.963 919.245 254.047C919.515 254.132 919.742 254.323 919.875 254.578C920.008 254.834 920.036 255.133 919.954 255.41C918.453 259.541 915.723 263.085 912.15 265.541C911.574 265.995 911.086 266.358 910.865 266.585C910.775 266.727 910.649 266.84 910.5 266.913C910.351 266.985 910.186 267.013 910.022 266.994Z" fill="#836CC4"/>
<path d="M839.2 262C837.614 261.993 836.03 261.863 834.463 261.61C823.955 259.41 814.495 253.746 807.608 245.529C804.479 248.217 793.181 257.189 783.229 255.845C780.406 255.553 777.679 254.663 775.228 253.236C772.778 251.808 770.661 249.875 769.019 247.567C761.023 236.124 764.934 217.573 765.108 216.793C765.17 216.54 765.325 216.319 765.543 216.175C765.76 216.03 766.023 215.972 766.281 216.012L868.229 228.365C868.369 228.384 868.503 228.433 868.623 228.508C868.743 228.582 868.845 228.682 868.924 228.799C869.025 229.049 869.025 229.329 868.924 229.579C868.924 229.709 862.884 262 839.2 262ZM807.738 243.016C807.886 243.029 808.029 243.074 808.157 243.149C808.284 243.224 808.394 243.327 808.477 243.449C815.13 251.556 824.306 257.216 834.55 259.529C857.886 263.474 865.187 236.037 866.49 230.099L766.542 218.18C765.847 222.037 763.761 237.077 770.279 246.396C771.786 248.495 773.732 250.241 775.983 251.514C778.235 252.786 780.737 253.555 783.316 253.765C793.746 255.195 806.695 243.406 806.826 243.319C806.942 243.199 807.086 243.109 807.245 243.056C807.404 243.003 807.573 242.989 807.738 243.016Z" fill="#301F5F"/>
<path d="M1180 1172.61C1180 1172.61 982.867 1238.88 945.068 1207.62C842.083 1007.6 956.136 394 956.136 394C1035.5 394 1114.99 428.49 1114.99 428.49L1126.5 668.432L1136.38 875.548L1180 1172.61Z" fill="#EDEDEF"/>
<path d="M1136 875.458L1114.92 881C1114.92 881 1092.93 762.214 1097.67 736.336C1100.77 718.88 1113.15 683.096 1126.34 669L1136 875.458Z" fill="#302061"/>
<path d="M939.055 764.97C938.924 765.01 938.784 765.01 938.654 764.97C938.396 764.863 938.191 764.661 938.083 764.408C937.975 764.154 937.972 763.869 938.076 763.614L1005.1 599.8L956.411 571.805C956.237 571.702 956.095 571.553 956.001 571.376C955.907 571.198 955.864 570.999 955.877 570.799C955.897 570.596 955.974 570.402 956.1 570.24C956.226 570.078 956.395 569.953 956.589 569.881L1011.82 551.028L1005.37 411.054C1005.35 410.92 1005.37 410.786 1005.41 410.659C1005.46 410.531 1005.53 410.415 1005.62 410.316C1005.71 410.217 1005.82 410.138 1005.95 410.085C1006.07 410.031 1006.21 410.003 1006.34 410.004C1006.48 409.992 1006.62 410.008 1006.75 410.05C1006.89 410.093 1007.01 410.161 1007.11 410.251C1007.21 410.341 1007.3 410.451 1007.36 410.574C1007.42 410.697 1007.45 410.83 1007.46 410.966L1014 551.815C1014.01 552.041 1013.94 552.263 1013.81 552.451C1013.69 552.639 1013.5 552.784 1013.29 552.865L959.482 571.237L1006.97 598.488C1007.18 598.623 1007.35 598.827 1007.43 599.066C1007.51 599.305 1007.5 599.565 1007.41 599.8L939.945 764.314C939.868 764.49 939.746 764.644 939.589 764.759C939.433 764.874 939.249 764.947 939.055 764.97Z" fill="#836CC4"/>
<path d="M993.699 778.281L775.023 873.319C765.151 877.609 760.625 889.094 764.913 898.971L907.402 1227.14C911.69 1237.02 923.169 1241.55 933.041 1237.26L1151.72 1142.22C1161.59 1137.93 1166.12 1126.44 1161.83 1116.57L1019.34 788.396C1015.05 778.52 1003.57 773.991 993.699 778.281Z" fill="#836CC4"/>
<path d="M1103 1044.57C1103 1044.57 1029.22 1089.77 1012.87 1092.7C996.511 1095.63 946.388 1104.07 926.602 1090.55C917.809 1084.52 915.214 1071.39 915.214 1071.39C915.214 1071.39 970.218 1069.9 975.45 1068.24C975.078 1067.57 974.797 1066.85 974.615 1066.1C943.398 1064.74 914.379 1066.8 900.793 1058.22C893.538 1053.85 891.999 1034.77 891.999 1034.77L969.206 1034.51L968.547 1032.41C968.547 1032.41 907.784 1034.51 890.197 1025.41C877.314 1018.59 883.47 1004.59 883.47 1004.59L963.227 1002.31C963.227 1002.31 964.106 1000.91 963.227 1000.87C954.697 1000.3 922.381 1001.4 898.902 993.346C893.538 991.465 880.041 972.391 893.583 971.472C907.125 970.553 977.472 968.322 977.472 968.322C977.472 968.322 992.905 965.216 993.081 963.116C993.741 954.935 985.343 956.029 978.616 954.585C974.219 953.667 943.178 953.842 943.178 953.842C943.178 953.842 936.715 939.186 973.955 931.312C996.935 927.009 1020.41 925.92 1043.69 928.074L1103 1044.57Z" fill="#E78978"/>
<path d="M1022.08 912.656C977.128 1010.9 1113.72 1099 1113.72 1099C1113.72 1099 1313.99 952.224 1371.82 862.681C1420.96 786.604 1394.95 710.528 1375.22 672.62C1338.13 601.309 1229.37 483.259 1116.17 429C1029.8 472.285 1082.22 647.611 1082.22 647.611C1082.22 647.611 1193.98 685.038 1194.63 767.454C1195.11 826.042 1092.08 875.186 1022.08 912.656Z" fill="#EDEDEF"/>
<path d="M1021.04 914C1020.83 914.004 1020.62 913.942 1020.45 913.823C1020.28 913.704 1020.15 913.533 1020.07 913.335C1019.97 913.076 1019.98 912.788 1020.08 912.531C1020.19 912.274 1020.39 912.07 1020.64 911.962C1062.76 895.48 1106.16 866.194 1128.27 850.2C1128.38 850.117 1128.5 850.058 1128.64 850.027C1128.77 849.995 1128.91 849.992 1129.05 850.016C1129.18 850.041 1129.31 850.094 1129.43 850.171C1129.54 850.249 1129.64 850.349 1129.71 850.466C1129.9 850.663 1130 850.925 1130 851.197C1130 851.469 1129.9 851.73 1129.71 851.928C1107.51 867.966 1064.03 897.385 1021.61 913.955L1021.04 914Z" fill="#836CC4"/>
<path d="M1140.82 1038.99C1140.58 1038.99 1140.34 1038.9 1140.16 1038.73C1139.29 1037.99 1055.17 964.894 1069.68 889.927C1069.7 889.784 1069.74 889.646 1069.82 889.521C1069.89 889.397 1069.99 889.289 1070.1 889.203C1070.22 889.118 1070.35 889.058 1070.49 889.026C1070.64 888.994 1070.78 888.992 1070.92 889.019C1071.07 889.046 1071.2 889.102 1071.32 889.183C1071.44 889.264 1071.54 889.369 1071.62 889.491C1071.69 889.613 1071.74 889.75 1071.76 889.892C1071.79 890.034 1071.78 890.179 1071.74 890.318C1057.44 964.156 1140.69 1036.43 1141.69 1037.17C1141.79 1037.26 1141.87 1037.37 1141.92 1037.5C1141.97 1037.62 1142 1037.75 1142 1037.89C1142 1038.02 1141.97 1038.15 1141.92 1038.27C1141.87 1038.4 1141.79 1038.51 1141.69 1038.6C1141.6 1038.74 1141.47 1038.85 1141.31 1038.92C1141.16 1038.99 1140.99 1039.01 1140.82 1038.99Z" fill="#836CC4"/>
<path d="M1096.63 589.999C1096.49 590.005 1096.34 589.983 1096.2 589.935C1096.07 589.888 1095.94 589.814 1095.83 589.721C1095.73 589.627 1095.64 589.514 1095.59 589.389C1095.53 589.264 1095.5 589.129 1095.5 588.994C1095.26 583.792 1090.5 461.619 1115.96 428.442C1116.13 428.218 1116.39 428.066 1116.68 428.017C1116.97 427.968 1117.27 428.026 1117.52 428.18C1117.76 428.346 1117.93 428.593 1117.98 428.87C1118.03 429.147 1117.97 429.432 1117.8 429.666C1092.81 462.274 1097.72 587.639 1097.76 588.906C1097.76 589.182 1097.65 589.447 1097.45 589.65C1097.25 589.852 1096.97 589.977 1096.68 589.999H1096.63Z" fill="#836CC4"/>
<path d="M775 401.111C775 401.111 708.062 919.585 708.062 1204.17C708.062 1238.34 553 1172.49 553 1172.49L622.444 457.887C622.444 457.887 725.115 398.088 775 401.111Z" fill="#EDEDEF"/>
<path d="M718.806 771.913C718.555 771.914 718.313 771.82 718.128 771.65C717.942 771.481 717.827 771.247 717.805 770.996L696.7 603.149C696.656 602.957 696.674 602.756 696.752 602.575C696.831 602.394 696.965 602.243 697.136 602.145L730.599 580.33L687.693 564.317C687.441 564.219 687.235 564.031 687.115 563.789C686.994 563.547 686.968 563.269 687.04 563.009L731.904 429.717C731.943 429.585 732.009 429.463 732.097 429.358C732.185 429.253 732.294 429.167 732.416 429.106C732.538 429.045 732.672 429.009 732.808 429.002C732.945 428.994 733.081 429.015 733.21 429.062C733.341 429.101 733.463 429.167 733.567 429.255C733.672 429.343 733.758 429.452 733.819 429.575C733.88 429.698 733.915 429.831 733.923 429.968C733.93 430.105 733.91 430.242 733.863 430.371L689.346 562.703L733.34 579.196C733.514 579.274 733.664 579.395 733.778 579.548C733.892 579.701 733.966 579.88 733.993 580.068C734.016 580.264 733.982 580.461 733.898 580.639C733.813 580.816 733.68 580.966 733.514 581.072L698.92 603.629L719.938 770.822C719.963 771.098 719.883 771.373 719.713 771.592C719.543 771.811 719.297 771.957 719.024 772L718.806 771.913Z" fill="#836CC4"/>
<path d="M627.631 579.996C627.508 579.991 627.388 579.958 627.278 579.899C627.167 579.841 627.069 579.758 626.988 579.656C626.907 579.554 626.845 579.435 626.807 579.306C626.769 579.177 626.755 579.04 626.766 578.905C628.692 542.374 622.047 459.973 622.008 459.144C621.992 459.008 622 458.871 622.033 458.739C622.067 458.608 622.124 458.485 622.201 458.379C622.278 458.273 622.374 458.185 622.483 458.122C622.592 458.058 622.711 458.02 622.834 458.009C622.956 457.991 623.08 458 623.198 458.037C623.317 458.074 623.427 458.137 623.523 458.223C623.618 458.309 623.697 458.415 623.755 458.536C623.812 458.657 623.847 458.789 623.856 458.926C623.856 459.755 630.58 542.331 628.653 579.036C628.643 579.174 628.609 579.308 628.552 579.431C628.495 579.554 628.417 579.663 628.322 579.752C628.227 579.841 628.117 579.909 627.998 579.951C627.88 579.993 627.755 580.008 627.631 579.996Z" fill="#836CC4"/>
<path d="M992.751 1164.2C992.092 1164.21 991.45 1164 990.922 1163.6C990.393 1163.21 990.008 1162.65 989.823 1162.02C989.639 1161.39 989.666 1160.71 989.899 1160.09C990.133 1159.48 990.561 1158.95 991.118 1158.6C994.45 1156.6 1005.24 1147.24 1009.18 1143.8C1009.47 1143.51 1009.82 1143.27 1010.21 1143.12C1010.6 1142.96 1011.01 1142.89 1011.43 1142.9C1011.85 1142.92 1012.26 1143.02 1012.63 1143.2C1013.01 1143.37 1013.35 1143.63 1013.62 1143.95C1013.9 1144.26 1014.1 1144.63 1014.23 1145.03C1014.35 1145.43 1014.39 1145.85 1014.35 1146.26C1014.3 1146.68 1014.17 1147.08 1013.96 1147.44C1013.76 1147.81 1013.47 1148.12 1013.14 1148.37C1012.57 1148.9 998.614 1161.07 994.35 1163.74C993.875 1164.05 993.318 1164.21 992.751 1164.2Z" fill="#302160"/>
<path d="M1041.07 297C1040.29 296.992 1039.54 296.775 1038.88 296.373C1038.23 295.971 1037.7 295.4 1037.37 294.725C1036.92 293.785 1036.88 292.714 1037.25 291.744C1037.61 290.773 1038.36 289.979 1039.33 289.533L1077.22 272.367C1077.7 272.15 1078.23 272.026 1078.76 272.004C1079.29 271.981 1079.82 272.06 1080.33 272.235C1080.83 272.411 1081.29 272.679 1081.68 273.026C1082.07 273.372 1082.39 273.79 1082.62 274.255C1082.84 274.72 1082.97 275.223 1083 275.735C1083.02 276.248 1082.94 276.76 1082.76 277.242C1082.57 277.724 1082.29 278.167 1081.93 278.546C1081.57 278.924 1081.14 279.231 1080.66 279.448L1042.77 296.614C1042.24 296.867 1041.66 297 1041.07 297Z" fill="#68F285"/>
<path d="M680.069 304C679.137 304.001 678.233 303.685 677.511 303.105L642.395 273.843C641.595 273.177 641.099 272.226 641.013 271.199C640.928 270.173 641.261 269.155 641.939 268.37C642.618 267.585 643.586 267.097 644.631 267.013C645.675 266.929 646.711 267.256 647.51 267.923L682.627 297.185C683.237 297.7 683.672 298.386 683.874 299.151C684.076 299.916 684.035 300.724 683.756 301.465C683.478 302.206 682.976 302.847 682.317 303.3C681.658 303.753 680.873 303.997 680.069 304Z" fill="#2F205F"/>
<path d="M448.974 518C448.443 518.004 447.917 517.901 447.428 517.695C446.939 517.49 446.498 517.187 446.133 516.806C445.407 516.08 445 515.1 445 514.078C445 513.057 445.407 512.076 446.133 511.35L484.36 475.076C485.114 474.364 486.122 473.977 487.163 474.001C488.205 474.025 489.194 474.458 489.913 475.204C490.633 475.95 491.023 476.948 490.999 477.98C490.975 479.011 490.538 479.99 489.784 480.703L451.557 516.934C450.86 517.596 449.939 517.976 448.974 518Z" fill="#2F205F"/>
</svg>
