<svg width="34" height="34" viewBox="0 0 34 34" fill="none" xmlns="http://www.w3.org/2000/svg">
<path d="M33.7689 17.199C33.7755 12.8674 32.101 8.70229 29.0979 5.58075C26.0948 2.45921 21.9975 0.624855 17.6689 0.463989V2.61199C21.4301 2.78523 24.9797 4.40126 27.5801 7.12416C30.1805 9.84706 31.6315 13.4674 31.6315 17.2325C31.6315 20.9976 30.1805 24.6179 27.5801 27.3408C24.9797 30.0637 21.4301 31.6798 17.6689 31.853V34.001C22.0008 33.8154 26.0937 31.9641 29.0935 28.8335C32.0933 25.7029 33.7683 21.5348 33.7689 17.199Z" fill="#68F285"/>
<path d="M0.232931 17.199C0.227069 21.5579 1.92321 25.7469 4.9601 28.8739C7.997 32.0008 12.1346 33.8185 16.4919 33.94V0.463989C12.1349 0.582892 7.99658 2.39902 4.95931 5.52521C1.92204 8.65139 0.226093 12.8403 0.232931 17.199Z" fill="#68F285"/>
</svg>
