<svg width="56" height="56" viewBox="0 0 56 56" fill="none" xmlns="http://www.w3.org/2000/svg">
<path d="M55.8035 27.8452C55.8145 20.6384 53.0284 13.7085 48.0318 8.51469C43.0351 3.32087 36.2179 0.268403 29.0155 0V3.57379C35.2734 3.86275 41.1793 6.5519 45.5056 11.0823C49.832 15.6127 52.2461 21.6359 52.2461 27.9C52.2461 34.1641 49.832 40.1873 45.5056 44.7177C41.1793 49.2481 35.2734 51.9372 29.0155 52.2262V55.8C36.223 55.4905 43.0327 52.4102 48.0238 47.2017C53.0149 41.9932 55.802 35.0588 55.8035 27.8452Z" fill="#68F285"/>
<path d="M3.43714e-05 27.8457C-0.00972718 35.0983 2.81263 42.0681 7.866 47.2708C12.9194 52.4735 19.8044 55.4978 27.0548 55.6998V0.000488281C19.8047 0.198449 12.9186 3.22034 7.86469 8.42196C2.81073 13.6236 -0.0113602 20.5934 3.43714e-05 27.8457Z" fill="#68F285"/>
</svg>
