<svg width="766" height="799" viewBox="0 0 766 799" fill="none" xmlns="http://www.w3.org/2000/svg">
<g clip-path="url(#clip0_201_143)">
<path d="M307.899 955.954L332.886 533.013L639.973 546.853L656.786 955.954H307.899Z" fill="#6E5AA4"/>
<path d="M462.117 955.954C460.979 903.147 459.168 849.527 457.473 797.673C455.801 748.35 454.082 697.354 452.967 647.543C442.866 640.855 432.068 635.189 421.804 629.732C410.998 624.298 400.529 618.219 390.454 611.526L391.429 610.109C401.453 616.752 411.868 622.785 422.616 628.176C433.475 633.698 444.047 639.766 454.291 646.359L454.686 646.614V647.102C455.824 697.052 457.542 748.187 459.33 797.65C461.072 849.527 462.883 903.147 463.975 955.977L462.117 955.954Z" fill="#070908"/>
<path d="M605.38 604.751L603.642 604.857L603.855 608.334L605.594 608.227L605.38 604.751Z" fill="#070908"/>
<path d="M624.345 945.504L623.927 938.537L625.645 938.421L626.086 945.388L624.345 945.504ZM623.485 931.454L623.068 924.488L624.809 924.372L625.227 931.338L623.485 931.454ZM622.626 917.405L622.208 910.439L623.95 910.322L624.368 917.289L622.626 917.405ZM621.79 903.472L621.349 896.505L623.091 896.389L623.509 903.356L621.79 903.472ZM620.931 889.307L620.49 882.34H622.232L622.673 889.307H620.931ZM620.072 875.257L619.654 868.291H621.372L621.814 875.257H620.072ZM619.213 861.324L618.795 854.358H620.536L620.954 861.324H619.213ZM618.354 847.391L617.936 840.424H619.677L620.095 847.391H618.354ZM617.518 833.342L617.076 826.375H618.818L619.236 833.342H617.518ZM616.658 819.292L616.217 812.326H617.959L618.4 819.292H616.658ZM615.799 805.243L615.358 798.277L617.099 798.161L617.541 805.127L615.799 805.243ZM614.94 791.194L614.522 784.227L616.24 784.111L616.681 791.078L614.94 791.194ZM614.081 777.261L613.663 770.294L615.404 770.178L615.822 777.145L614.081 777.261ZM613.221 763.212L612.803 756.245H614.545L614.963 763.212H613.221ZM612.385 749.162L611.944 742.196L613.686 742.08L614.104 749.046L612.385 749.162ZM611.526 735.113L611.085 728.146H612.827L613.268 735.113H611.526ZM610.667 721.18L610.249 714.213H611.968L612.409 721.18H610.667ZM609.808 707.131L609.39 700.164H611.132L611.55 707.131H609.808ZM608.949 693.081L608.531 686.115H610.272L610.69 693.081H608.949ZM608.113 679.032L607.671 672.066H609.413L609.831 679.032H608.113ZM607.253 664.983L606.812 658.016L608.554 657.9L608.995 664.867L607.253 664.983ZM606.394 651.05L605.953 644.083L607.695 643.967L608.136 650.934L606.394 651.05ZM605.535 637L605.117 630.034H606.835L607.277 637H605.535ZM604.676 622.951L604.258 615.985L605.999 615.868L606.417 622.835L604.676 622.951Z" fill="#070908"/>
<path d="M440.125 337.507C456.589 274.506 379.005 220.701 320.532 286.419C275.992 343.754 241.113 397.211 219.238 445.466C163.97 538.354 256.393 617.146 319.255 546.156C373.408 478.813 429.907 388.038 440.125 337.507Z" fill="#35246A"/>
<path d="M468.089 176.377C501.998 170.842 524.11 133.407 517.476 92.7633C510.842 52.1197 477.975 23.6583 444.066 29.193C410.156 34.7277 388.044 72.1626 394.678 112.806C401.312 153.45 434.179 181.911 468.089 176.377Z" fill="#070908"/>
<path d="M533.362 225.926L489.008 47.1172L398.442 42.4728C376.08 120.963 375.778 174.629 417.786 180.69L421.223 255.998L458.03 274.042L502.593 258.831L533.362 225.926Z" fill="#A76767"/>
<path d="M530.018 212.248C449.739 246.315 456.056 254.814 418.692 226.391C418.692 226.391 331.888 280.173 313.009 320.741C294.129 361.31 332.84 542.441 332.84 542.441L644.2 556.374C644.2 556.374 649.82 296.289 648.844 283.029C646.987 248.103 530.018 212.248 530.018 212.248Z" fill="#35246A"/>
<path d="M417.786 180.643C426.727 181.393 435.73 180.79 444.491 178.855C437.562 186.301 428.387 191.276 418.367 193.021L417.786 180.643Z" fill="#070908"/>
<path d="M484.293 84.4117C487.761 81.1284 491.918 78.661 496.461 77.1897C524.629 67.6687 525.326 104.801 509.117 123.03C503.265 129.718 495.857 134.292 488.217 133.944C464.833 132.876 484.293 84.4117 484.293 84.4117Z" fill="#A76767"/>
<path d="M508.119 124.144C508.119 124.144 500.224 133.433 491.864 133.712C498.436 134.966 505.472 133.944 509.721 130.832L508.119 124.144Z" fill="#070908"/>
<path d="M503.939 111.465L502.639 110.304C511.393 100.551 507.98 94.5132 506.726 92.8877C506.105 91.8944 505.178 91.1304 504.084 90.7114C502.991 90.2924 501.79 90.2412 500.665 90.5655L499.852 89.0096C501.346 88.4992 502.967 88.5006 504.459 89.0136C505.952 89.5266 507.232 90.5219 508.096 91.8427C509.466 93.7004 513.599 100.713 503.939 111.465Z" fill="#070908"/>
<path d="M492.747 112.998L491.075 112.51C491.455 110.805 492.186 109.197 493.222 107.79C494.257 106.383 495.574 105.207 497.089 104.336C500.505 102.711 504.403 102.413 508.027 103.5L507.516 105.149C504.294 104.276 500.866 104.59 497.855 106.031C496.581 106.791 495.471 107.799 494.594 108.996C493.716 110.193 493.088 111.554 492.747 112.998Z" fill="#070908"/>
<path d="M496.462 77.1897C496.462 77.1897 486.778 80.3478 486.058 95.0241C476.77 96.4174 475.771 83.7383 481.646 59.0998L499.829 61.1433L496.462 77.1897Z" fill="#070908"/>
<path d="M443.051 120.94C442.448 120.974 441.843 120.974 441.24 120.94C438.365 120.495 435.64 119.361 433.299 117.634C430.957 115.907 429.069 113.639 427.795 111.024C424.543 104.855 423.308 97.8214 424.265 90.9138C424.965 83.9665 427.823 77.413 432.439 72.1737C434.226 69.8589 436.583 68.0472 439.279 66.9156C441.976 65.784 444.919 65.3712 447.823 65.7175C450.727 66.0638 453.491 67.1573 455.846 68.8913C458.2 70.6253 460.065 72.9405 461.257 75.6106C464.379 81.8321 465.603 88.8338 464.777 95.7453C463.951 102.657 461.112 109.173 456.613 114.484C454.926 116.445 452.849 118.032 450.514 119.144C448.178 120.255 445.637 120.867 443.051 120.94ZM446 67.2275C443.647 67.3189 441.338 67.9011 439.223 68.9369C437.107 69.9726 435.232 71.439 433.716 73.242C429.349 78.2122 426.645 84.4236 425.983 91.0067C425.087 97.5524 426.247 104.215 429.304 110.072C430.36 112.508 432.036 114.625 434.165 116.211C436.294 117.797 438.801 118.798 441.438 119.112C444.074 119.427 446.747 119.045 449.189 118.005C451.632 116.965 453.759 115.303 455.359 113.184C459.608 108.144 462.288 101.971 463.068 95.4258C463.848 88.8806 462.694 82.2503 459.748 76.3537C458.601 73.9858 456.9 71.9287 454.79 70.3565C452.68 68.7842 450.223 67.7428 447.626 67.3204C447.087 67.2554 446.544 67.2243 446 67.2275Z" fill="#35246A"/>
<path d="M390.593 114.693C389.989 114.728 389.385 114.728 388.781 114.693C377.612 113.369 369.995 99.8775 371.806 84.6439C372.521 77.7076 375.378 71.166 379.98 65.9271C381.836 63.6878 384.204 61.9294 386.885 60.8015C389.565 59.6735 392.478 59.2092 395.376 59.4482C406.546 60.795 414.163 74.2637 412.328 89.4973C411.636 96.4354 408.786 102.982 404.177 108.214C402.49 110.182 400.41 111.775 398.071 112.891C395.731 114.007 393.184 114.621 390.593 114.693ZM393.542 60.9576C391.187 61.0533 388.878 61.6398 386.762 62.6795C384.647 63.7192 382.772 65.1892 381.257 66.9953C376.888 71.9529 374.191 78.1601 373.548 84.7368C371.829 99.0183 378.773 111.628 388.99 112.835C391.619 113.053 394.261 112.627 396.688 111.596C399.116 110.564 401.256 108.957 402.923 106.914C407.274 101.944 409.969 95.7433 410.633 89.1722C412.328 74.8907 405.408 62.2812 395.19 61.0737C394.644 60.9994 394.093 60.9606 393.542 60.9576Z" fill="#35246A"/>
<path d="M429.164 78.0257C426.429 76.2926 423.34 75.1965 420.124 74.8187C416.908 74.4408 413.649 74.7908 410.587 75.8429L410.122 74.1477C413.415 73.0099 416.923 72.6279 420.384 73.0299C423.845 73.4319 427.171 74.6076 430.116 76.4699L429.164 78.0257Z" fill="#35246A"/>
<path d="M513.785 76.1215C471.08 63.6049 429.652 56.6847 390.198 58.2174C390.198 58.2174 408.59 -10.4034 473.797 5.61973C523.561 20.714 513.785 76.1215 513.785 76.1215Z" fill="#68F285"/>
<path d="M468.456 64.975C468.456 64.975 452.015 75.8893 410.402 73.6832C361.636 71.0824 383.209 58.2174 390.245 58.2174C416.492 57.3105 442.753 59.5795 468.456 64.975Z" fill="#68F285"/>
<path d="M480.136 7.94186C467.875 3.8548 448.67 15.5354 431.695 35.8082L419.898 34.1594C426.517 19.994 435.295 8.6153 446.696 3.20459C460.119 -3.27433 479.532 0.975286 480.136 7.94186Z" fill="#49BC61" fill-opacity="0.8"/>
<path d="M468.294 65.811C435.946 59.2159 406.802 56.6847 390.314 59.0766L390.059 57.3582C406.732 55.036 436.108 57.3582 468.642 64.1158L468.294 65.811Z" fill="#070908"/>
<path d="M460.212 35.1116L458.68 34.2756C469.408 15.0943 491.33 13.3759 491.539 13.3759L491.655 15.1175C491.446 15.1639 470.453 16.7895 460.212 35.1116Z" fill="#070908"/>
<path d="M434.762 99.9935C434.757 100.748 434.977 101.486 435.392 102.116C435.808 102.745 436.401 103.237 437.097 103.529C437.792 103.82 438.558 103.899 439.299 103.755C440.039 103.61 440.72 103.25 441.255 102.718C441.79 102.186 442.155 101.508 442.304 100.768C442.452 100.029 442.378 99.262 442.091 98.5648C441.803 97.8675 441.315 97.2714 440.688 96.8519C440.062 96.4323 439.324 96.2084 438.57 96.2084C437.564 96.2084 436.599 96.6064 435.885 97.3156C435.172 98.0248 434.768 98.9875 434.762 99.9935Z" fill="#070908"/>
<path d="M434.784 86.6642C434.459 88.3362 437.106 90.2868 440.984 91.0299C444.862 91.773 447.951 91.0299 448.369 89.3579C448.787 87.6859 445.93 85.7353 442.168 84.9922C438.406 84.2491 435.155 84.9922 434.784 86.6642Z" fill="#070908"/>
<path d="M443.655 107.448C443.376 108.934 445.072 110.513 447.463 110.978C449.855 111.442 452.108 110.652 452.34 109.166C452.572 107.68 450.924 106.101 448.532 105.636C446.14 105.172 443.957 106.031 443.655 107.448Z" fill="#A76666"/>
<path d="M386.389 99.0647C386.111 100.551 387.806 102.13 390.198 102.618C392.59 103.105 394.842 102.269 395.074 100.783C395.307 99.2969 393.658 97.741 391.266 97.2534C388.874 96.7657 386.691 97.6714 386.389 99.0647Z" fill="#A76666"/>
<path d="M395.678 80.4871C395.353 82.1591 398 84.1097 401.855 84.8528C405.71 85.5959 408.822 84.8528 409.24 83.1809C409.658 81.5089 406.802 79.5582 403.063 78.8151C399.324 78.072 396.027 78.7919 395.678 80.4871Z" fill="#070908"/>
<path d="M396.167 95.117C396.167 95.8702 396.39 96.6065 396.808 97.2328C397.227 97.8591 397.822 98.3472 398.517 98.6355C399.213 98.9237 399.979 98.9992 400.718 98.8522C401.457 98.7053 402.135 98.3425 402.668 97.8099C403.2 97.2773 403.563 96.5987 403.71 95.86C403.857 95.1212 403.782 94.3555 403.493 93.6596C403.205 92.9637 402.717 92.3689 402.091 91.9504C401.464 91.5319 400.728 91.3086 399.975 91.3086C398.965 91.3086 397.996 91.7098 397.282 92.4241C396.568 93.1383 396.167 94.1069 396.167 95.117Z" fill="#070908"/>
<path d="M414.255 128.185C411.08 127.526 408.02 126.399 405.176 124.841C403.481 123.564 405.176 120.475 408.102 115.367C411.028 110.258 414.441 104.127 415.068 98.8325C416.067 89.358 414.209 86.5946 414.186 86.5714L415.579 85.5264C415.811 85.8283 417.901 88.8471 416.81 99.0183C416.229 104.661 412.607 111.07 409.704 116.226C408.171 118.966 406.058 122.728 406.36 123.494C408.994 124.876 411.808 125.885 414.72 126.49L414.255 128.185Z" fill="#070908"/>
<path d="M412.77 139.912C408.002 139.852 403.26 139.204 398.651 137.985L399.069 136.289C420.665 141.747 428.445 133.456 428.537 133.363L429.838 134.525C429.582 134.826 424.868 139.912 412.77 139.912Z" fill="#070908"/>
<path d="M407.289 148.202C404.937 148.212 402.637 147.508 400.694 146.182L401.646 144.742C403.182 145.73 404.941 146.318 406.762 146.452C408.583 146.586 410.409 146.261 412.073 145.509L412.676 147.134C410.962 147.821 409.135 148.183 407.289 148.202Z" fill="#070908"/>
<path d="M546.923 214.78C546.923 214.78 464.485 275.923 464.485 384.3C464.485 492.676 485.617 706.063 485.617 706.063C545.248 707.066 604.881 704.227 664.147 697.563C664.147 697.563 661.198 305.113 656.948 284.654C648.983 250.866 546.923 214.78 546.923 214.78Z" fill="#68F285"/>
<path d="M652.698 274.042C608.832 225.926 501.315 274.042 530.203 360.892C554.005 429.466 594.435 473.518 623.09 518.151C670.858 615.079 787.246 580.594 762.027 489.146C734.834 406.987 689.505 310.152 652.698 274.042Z" fill="#35246A"/>
<path d="M535.521 214.013C535.521 214.013 522.331 181.503 522.47 182.06C522.61 182.617 452.572 243.505 452.572 243.505L462.534 268.027L535.521 214.013Z" fill="#35246A"/>
<path d="M445.652 242.762L418.854 203.238L413.769 229.525L423.8 263.058L445.652 242.762Z" fill="#35246A"/>
<path d="M413.769 229.525C329.403 285.258 363.4 460.421 382.373 701.813C360.076 701.268 337.862 698.883 315.958 694.684C315.958 694.684 284.353 392.799 307.83 309.409C328.637 260.364 413.769 229.525 413.769 229.525Z" fill="#68F285"/>
<path d="M663.241 596.85C663.241 605.535 663.404 613.872 663.473 621.79C603.979 626.435 542.209 628.757 478.58 628.919L476.258 602.028C540.877 602.431 603.205 600.705 663.241 596.85Z" fill="#35246A"/>
<path d="M663.636 637.163C663.636 643.944 663.752 650.33 663.798 656.182C603.29 662.208 542.497 664.921 481.692 664.31C481.692 664.31 480.461 650.562 479.881 643.851C541.171 643.247 602.423 641.018 663.636 637.163Z" fill="#35246A"/>
<path d="M373.594 601.308L375.916 626.853C353.62 626.441 331.366 624.728 309.269 621.72C308.619 613.825 307.969 605.465 307.319 596.78C329.302 599.591 351.433 601.103 373.594 601.308Z" fill="#35246A"/>
<path d="M377.356 642.458L379.26 664.054C357.106 662.428 334.783 659.789 312.288 656.135C311.754 650.307 311.197 643.944 310.616 637.117C332.727 640.313 355.019 642.097 377.356 642.458Z" fill="#35246A"/>
<path d="M462.162 269.397L451.782 243.83L453.385 243.18L462.929 266.657L535.01 213.317L536.055 214.71L462.162 269.397Z" fill="#070908"/>
<path d="M426.795 267.424L411.631 229.851L413.234 229.2L427.306 264.033L444.978 242.228L446.348 243.319L426.795 267.424Z" fill="#070908"/>
<path d="M70.4553 586.4H466.761L396.328 265.659H0L70.4553 586.4Z" fill="#35246A"/>
<path d="M306.832 559.718H417.786L398.071 469.919H287.116L306.832 559.718Z" fill="#553D97"/>
<path d="M347.818 501.315L309.479 326.732H94.6758L132.945 500.943L131.25 501.315L92.5161 324.991H310.872L311.034 325.688L349.513 500.943L347.818 501.315Z" fill="#070908"/>
<path d="M297.89 343.104L300.747 356.178H300.7L303.046 366.86H286.907L284.027 353.786H284.073L281.728 343.104H297.89Z" fill="#553D97"/>
<path d="M255.697 343.104L258.577 356.178H258.53L260.876 366.86H244.713L241.834 353.786H241.88L239.558 343.104H255.697Z" fill="#553D97"/>
<path d="M213.526 343.104L216.383 356.178H216.336L218.681 366.86H202.542L199.663 353.786H199.709L197.364 343.104H213.526Z" fill="#553D97"/>
<path d="M171.332 343.104L174.211 356.178H174.165L176.51 366.86H160.348L157.468 353.786H157.515L155.192 343.104H171.332Z" fill="#553D97"/>
<path d="M112.999 343.104H129.161L132.017 356.178H131.971L134.316 366.86H118.177L115.298 353.786H115.344L112.999 343.104Z" fill="#553D97"/>
<path d="M308.55 386.668L311.406 399.742H311.383L313.705 410.424H297.566L294.687 397.35H294.733L292.388 386.668H308.55Z" fill="#553D97"/>
<path d="M266.356 386.668L269.235 399.742H269.189L271.534 410.424H255.372L252.515 397.35H252.562L250.216 386.668H266.356Z" fill="#553D97"/>
<path d="M224.185 386.668L227.064 399.742H226.995L229.34 410.424H213.201L210.321 397.35H210.368L208.022 386.668H224.185Z" fill="#553D97"/>
<path d="M181.99 386.668L184.87 399.742H184.823L187.169 410.424H171.006L168.15 397.35H168.196L165.851 386.668H181.99Z" fill="#553D97"/>
<path d="M123.657 386.668H139.819L142.699 399.742H142.629L144.998 410.424H128.835L125.956 397.35H126.002L123.657 386.668Z" fill="#553D97"/>
<path d="M319.209 430.233L322.088 443.306H322.042L324.387 453.989H308.225L305.345 440.915H305.392L303.046 430.233H319.209Z" fill="#553D97"/>
<path d="M277.037 430.233L279.894 443.306H279.847L282.193 453.989H266.03L263.174 440.915H263.22L260.875 430.233H277.037Z" fill="#553D97"/>
<path d="M234.843 430.233L237.723 443.306H237.676L240.022 453.989H223.859L220.98 440.915H221.026L218.681 430.233H234.843Z" fill="#553D97"/>
<path d="M192.672 430.233L195.528 443.306H195.482L197.827 453.989H181.665L178.808 440.915H178.855L176.509 430.233H192.672Z" fill="#553D97"/>
<path d="M134.315 430.233H150.478L153.357 443.306H153.311L155.656 453.989H139.494L136.614 440.915H136.661L134.315 430.233Z" fill="#553D97"/>
<path d="M258.668 587.259H69.7349L69.5956 586.586L25.6133 386.343L27.3085 385.972L71.1515 585.518H258.668V587.259Z" fill="#070908"/>
<path d="M330.402 264.8H237.909V266.541H330.402V264.8Z" fill="#070908"/>
<path d="M460.421 561.529L395.632 266.541H330.401V264.8H397.025L397.164 265.473L462.116 561.158L460.421 561.529Z" fill="#070908"/>
<path d="M38.9904 333.026L28.9121 287.093H184.545V288.834H31.0717L40.6856 332.654L38.9904 333.026Z" fill="#070908"/>
<path d="M287.116 560.74H89.6828L71.082 476.096L72.8005 475.724L91.0761 558.998H287.116V560.74Z" fill="#070908"/>
<path d="M501.315 413.791C501.315 413.791 463.881 387.504 423.684 386.157L428.119 406.709L372.085 397.838C356.666 395.284 349.374 414.093 361.031 419.574C360.451 419.574 357.06 418.552 356.526 418.645C345.031 416.578 340.735 437.478 356.526 440.961C357.293 441.263 361.705 442.122 361.705 442.122C349.374 438.709 345.449 464.044 361.705 465.344C353.275 468.804 352.416 479.765 361.705 485.501C394.215 503.057 450.691 512.949 487.103 510.789C531.085 505.843 545.901 456.195 501.315 413.791Z" fill="#A76767"/>
<path d="M428.189 433.739C412.909 431.974 375.894 424.822 360.846 421.269L361.24 419.574C376.358 423.127 413.258 430.256 428.584 432.021L428.189 433.739Z" fill="#070908"/>
<path d="M425.24 457.054C410.123 453.942 374.663 446.418 361.473 442.958L361.914 441.263C375.058 444.723 410.495 452.247 425.589 455.335L425.24 457.054Z" fill="#070908"/>
<path d="M420.503 480.926C408.683 478.604 373.734 470.801 361.403 466.25L362.007 464.624C373.292 468.781 406.779 476.444 420.828 479.208L420.503 480.926Z" fill="#070908"/>
<path d="M427.728 406.144L427.479 407.868L446.095 410.557L446.344 408.834L427.728 406.144Z" fill="#070908"/>
<path d="M502.267 407.312C506.586 444.978 500.224 481.925 486.012 518.406C486.012 518.406 602.121 576.461 654.626 582.87C759.821 607.578 807.148 495.788 720.483 457.17C639.764 425.844 502.267 407.312 502.267 407.312Z" fill="#35246A"/>
<path d="M703.044 451.852C656.786 436.061 554.772 416.671 553.75 416.462L554.075 414.767C555.097 414.952 657.227 434.389 703.601 450.203L703.044 451.852Z" fill="#070908"/>
<path d="M724.339 449.158C724.13 449.158 703.067 440.636 671.044 442.192V440.45C703.555 438.987 724.85 447.417 725.059 447.626L724.339 449.158Z" fill="#070908"/>
<path d="M506.284 528.531L504.984 527.37C522.261 508.049 535.358 436.317 522.377 410.819L523.933 410.029C537.146 435.945 523.84 508.908 506.284 528.531Z" fill="#070908"/>
<path d="M500.897 515.689C499.785 515.689 498.699 515.36 497.774 514.742C496.85 514.125 496.13 513.247 495.705 512.22C495.279 511.193 495.168 510.063 495.385 508.973C495.602 507.883 496.137 506.882 496.923 506.096C497.709 505.31 498.71 504.775 499.8 504.558C500.89 504.341 502.02 504.452 503.047 504.878C504.074 505.303 504.952 506.023 505.569 506.947C506.187 507.871 506.516 508.958 506.516 510.069C506.519 510.808 506.376 511.54 506.095 512.224C505.813 512.907 505.4 513.528 504.877 514.05C504.355 514.573 503.734 514.986 503.051 515.268C502.368 515.549 501.635 515.692 500.897 515.689ZM500.897 506.215C500.132 506.224 499.386 506.459 498.755 506.891C498.123 507.322 497.633 507.931 497.347 508.641C497.06 509.35 496.99 510.128 497.145 510.877C497.3 511.626 497.673 512.313 498.217 512.851C498.761 513.389 499.452 513.753 500.203 513.899C500.954 514.045 501.732 513.966 502.438 513.671C503.144 513.376 503.746 512.879 504.171 512.242C504.595 511.606 504.821 510.858 504.821 510.093C504.821 509.579 504.719 509.071 504.521 508.598C504.324 508.124 504.034 507.695 503.669 507.334C503.304 506.973 502.871 506.688 502.395 506.496C501.919 506.304 501.41 506.208 500.897 506.215Z" fill="#070908"/>
<path d="M27.7735 396.305L30.4207 408.056C30.4207 408.056 50.2523 402.715 66.8095 398.07C87.268 391.754 94.6758 409.426 85.5496 417.182C95.1867 414.186 103.175 431.115 91.0067 435.759C103.361 431.765 105.637 450.645 93.5844 457.356C101.549 463.579 100.156 471.986 93.5844 481.065C84.8065 493.327 59.1695 505.518 59.1695 505.518C27.3322 517.593 -3.0188 408.45 27.7735 396.305Z" fill="#A76767"/>
<path d="M85.2506 416.342L39.3892 432.989L39.9834 434.626L85.8448 417.979L85.2506 416.342Z" fill="#070908"/>
<path d="M90.5591 434.938L51.0273 457.495L51.8905 459.008L91.4223 436.45L90.5591 434.938Z" fill="#070908"/>
<path d="M93.1414 456.673L58.5923 478.811L59.5319 480.277L94.081 458.14L93.1414 456.673Z" fill="#070908"/>
</g>
<defs>
<clipPath id="clip0_201_143">
<rect width="765.441" height="956" fill="white"/>
</clipPath>
</defs>
</svg>
