<svg width="732" height="725" viewBox="0 0 732 725" fill="none" xmlns="http://www.w3.org/2000/svg">
<g clip-path="url(#clip0_131_61)">
<path d="M447.687 501.139C447.687 501.139 510.425 633.913 508.821 756.944C507.216 879.974 693.443 1296.75 718.354 1345.01C718.354 1345.01 543.055 1327.77 472.408 1424.37C472.408 1424.37 410.396 1246.73 398.704 1163.94C387.013 1081.14 289.085 700.013 289.085 700.013C289.085 700.013 313.194 1020.96 298.255 1131.19C283.316 1241.42 343.073 1384.13 343.073 1438.16C343.073 1438.16 136.176 1317.42 81.0029 1365.56C81.0029 1365.56 81.0029 1203.98 108.589 1084.46C136.176 964.949 122.383 744.717 125.821 668.835C129.26 592.954 145.346 543.512 194.214 502.706L447.687 501.139Z" fill="#7964B4"/>
<path d="M263.483 506.718C247.917 540.329 239.152 576.688 237.693 613.701" stroke="white" stroke-width="1.91041" stroke-miterlimit="10"/>
<path d="M303.298 1419.86C306.813 1364.19 291.835 1309.24 281.634 1254.38C254.888 1108.57 263.829 958.874 272.807 810.932C275.355 771.042 277.787 731.166 280.105 691.302" stroke="white" stroke-width="1.91041" stroke-miterlimit="10"/>
<path d="M416.508 512.296C458.04 568.73 471.069 640.638 481.462 709.947C498.006 821.401 510.958 935.185 555.242 1038.84C570.525 1074.87 589.629 1109.26 605.447 1145.14C623.749 1186.75 637.619 1230.19 651.297 1273.52C658.404 1295.76 667.154 1322.73 674.222 1345.01" stroke="white" stroke-width="1.91041" stroke-miterlimit="10"/>
<path d="M289.084 700.013C289.084 700.013 263.828 672.427 231.542 632.767C231.542 632.767 220.423 737.113 295.464 799.163C295.464 799.163 293.707 760.382 289.084 700.013Z" fill="#332C33"/>
<path d="M134.454 9.32294L132.735 139.193H66.5581V9.32294H134.454Z" fill="#332C33"/>
<path d="M111.456 17.0791H125.479V51.5811H111.456V17.0791Z" fill="#524752"/>
<path d="M113.746 26.1345C113.738 27.0732 114.01 27.9929 114.526 28.777C115.042 29.5612 115.779 30.1744 116.644 30.5389C117.509 30.9033 118.463 31.0026 119.384 30.8241C120.306 30.6457 121.153 30.1975 121.82 29.5364C122.486 28.8754 122.941 28.0313 123.127 27.1112C123.313 26.1911 123.222 25.2365 122.864 24.3686C122.507 23.5006 121.9 22.7584 121.12 22.2361C120.34 21.7138 119.422 21.4349 118.484 21.4349C117.863 21.4299 117.248 21.5477 116.673 21.7816C116.099 22.0155 115.576 22.3609 115.136 22.7978C114.695 23.2347 114.346 23.7545 114.107 24.3272C113.869 24.8999 113.746 25.5141 113.746 26.1345Z" fill="white"/>
<path d="M113.746 42.5257C113.708 43.4699 113.954 44.404 114.45 45.2078C114.947 46.0117 115.673 46.6486 116.535 47.0367C117.397 47.4247 118.355 47.5462 119.286 47.3856C120.217 47.2249 121.079 46.7894 121.761 46.1351C122.443 45.4807 122.913 44.6374 123.112 43.7135C123.311 42.7897 123.229 41.8274 122.877 40.9505C122.524 40.0736 121.918 39.3221 121.135 38.7926C120.353 38.263 119.429 37.9797 118.484 37.9789C117.26 37.9779 116.083 38.4507 115.2 39.2984C114.317 40.146 113.796 41.3025 113.746 42.5257Z" fill="white"/>
<path d="M123.833 172.052C123.833 172.052 66.5207 151.84 9.59042 172.052C9.59042 171.975 61.4772 212.361 123.833 172.052Z" fill="#332C33"/>
<path d="M46.6907 193.219C46.6907 193.219 42.2968 165.403 38.7052 151.725C35.1137 138.046 50.5116 127.233 59.4523 83.8286C61.8594 72.3661 70.9148 90.5914 64.1519 106.754C64.1519 106.754 84.0202 83.0262 87.4207 72.0604C89.9425 64.0367 101.176 90.2476 79.2059 111.415C79.2059 111.415 101.023 94.2212 113.593 82.3767C119.095 77.2568 108.779 116.764 86.4655 120.012C86.4655 120.012 111.759 120.012 121.732 117.07C131.704 114.128 120.968 135.371 89.2165 131.933C89.2165 131.933 93.0373 151.725 80.1611 164.257L84.4023 188.787C72.8693 195.058 59.3635 196.646 46.6907 193.219Z" fill="#FF9785"/>
<path d="M59.1472 467.784C70.6096 486.162 127.234 488.951 161.01 453.073C173.619 439.7 182.636 422.507 191.844 404.969C206.249 377.154 221.188 347.657 251.258 328.858C253.207 327.598 255.27 326.413 257.41 325.229C312.124 295.312 308.609 193.678 266.121 204.796C227.913 214.73 208.618 225.352 174.116 276.437C139.614 327.521 70.6479 371.231 70.6479 371.231C70.6479 371.231 47.6847 449.367 59.1472 467.784Z" fill="#3A2773"/>
<path d="M191.882 404.969C206.287 377.154 221.226 347.657 251.296 328.858L225.62 295.923C225.62 295.923 166.665 339.595 191.882 404.969Z" fill="#332C33"/>
<path d="M104.386 462.091C68.7378 506.718 22.0474 441.993 23.6904 415.133C28.2371 340.741 -6.03564 311.321 4.58624 290.115C9.13301 280.869 18.5322 286.065 22.2002 275.138C25.8682 264.21 11.158 263.217 9.70613 253.015C8.16994 226.036 8.16994 198.992 9.70613 172.014C9.70613 172.014 80.1239 198.148 123.949 172.014L117.148 225.964C118.444 230.657 121.387 234.726 125.439 237.426C135.831 245.412 124.789 252.213 124.789 252.213C124.789 252.213 137.665 276.475 142.289 287.25C146.912 298.024 124.063 315.562 134.953 345.403C134.838 345.364 131.552 428.047 104.386 462.091Z" fill="#3A2773"/>
<path d="M8.4841 216.144C8.4841 216.144 69.9611 244.227 118.868 211.865" stroke="white" stroke-width="1.91041" stroke-miterlimit="10"/>
<path d="M28.8867 222.907L33.9302 178.814" stroke="white" stroke-width="1.91041" stroke-miterlimit="10"/>
<path d="M59.6819 227.377L64.0376 183.247" stroke="white" stroke-width="1.91041" stroke-miterlimit="10"/>
<path d="M92.0444 223.862L91.9298 182.521" stroke="white" stroke-width="1.91041" stroke-miterlimit="10"/>
<path d="M110.537 216.717L112.371 177.515" stroke="white" stroke-width="1.91041" stroke-miterlimit="10"/>
<path d="M131.476 321.752C131.056 348.994 146.492 374.938 144.352 401.989C143.044 417.748 135.921 432.456 124.369 443.254" stroke="#38303B" stroke-width="1.91041" stroke-miterlimit="10"/>
<path d="M6.5729 316.058C6.5729 327.292 17.3858 334.933 26.0973 342.002C36.7822 351.271 46.5922 361.503 55.403 372.568C60.3701 378.376 65.6428 385.215 64.6112 392.78C56.4366 390.135 49.0986 385.392 43.3292 379.026" stroke="#38303B" stroke-width="1.91041" stroke-miterlimit="10"/>
<path d="M126.928 250.608C120.983 252.334 115.753 255.932 112.015 260.868C108.278 265.803 106.232 271.812 106.181 278.003H110.804" stroke="#38303B" stroke-width="1.91041" stroke-miterlimit="10"/>
<path d="M338.87 20.5561C348.193 14.0607 357.974 7.37426 368.94 4.89072C379.905 2.40719 393.087 5.11997 399.506 14.3664C402.392 19.0962 404.507 24.2551 405.772 29.6497C409.899 42.8697 416.738 56.2044 428.697 63.0819C439.434 69.1952 453.685 69.9593 461.403 79.5878C468.51 88.4521 467.097 101.061 468.472 112.332C471.338 135.486 474.318 149.509 492.887 163.684C511.456 177.859 532.585 171.861 575.073 195.015C595.591 206.21 617.943 234.293 613.778 255.116C506.069 248.621 400.232 269.101 300.47 310.557C283.85 293.86 274.068 267.305 267.497 244.686C264.593 234.675 262.874 223.595 267.229 214.119C269.789 208.579 274.221 204.07 276.667 198.492C283.582 182.597 272.387 165.136 261.842 151.381C251.296 137.626 240.369 119.821 247.781 104.156C253.36 92.3494 267.65 86.6564 273.381 74.8882C279.112 63.1201 274.833 49.9 272.387 37.3677C269.942 24.8354 270.706 9.24646 281.71 2.75106C298.445 -6.72459 313.079 9.85779 338.87 20.5561Z" fill="#60DF7A"/>
<path d="M520.779 289.58C520.779 289.58 466.714 453.532 466.714 472.483C466.714 491.434 488.99 515.238 491.702 523.529C497.128 540.112 461.136 560.438 447.686 563.801C422.622 570.105 398.971 524.102 373.104 515.506L194.213 502.859C194.213 502.859 222.449 481.195 225.62 445.088C228.409 414.025 217.253 394.768 212.056 365.462C206.86 336.156 253.015 209.649 266.083 204.796C279.15 199.944 313.041 203.726 313.041 203.726L472.407 228.638L520.779 289.58Z" fill="#3A2773"/>
<path d="M356.904 492.657C309.226 490.746 261.695 486.129 214.54 478.826" stroke="white" stroke-width="1.91041" stroke-miterlimit="10"/>
<path d="M453.493 371.193C453.493 371.193 432.364 429.155 470.534 453.073L488.989 389.227L453.493 371.193Z" fill="#332C33"/>
<path d="M375.282 516.04L352.777 487.957C350.133 483.757 346.063 480.651 341.315 479.208C338.865 478.995 336.404 479.443 334.186 480.505C331.969 481.567 330.076 483.203 328.706 485.245C326.007 489.364 324.102 493.951 323.089 498.77C326.869 498.875 330.542 497.505 333.329 494.95" stroke="#38303B" stroke-width="1.91041" stroke-miterlimit="10"/>
<path d="M376.468 409.134C360.917 410.238 345.301 408.262 330.516 403.318C315.731 398.375 302.067 390.561 290.308 380.325" stroke="#38303B" stroke-width="1.91041" stroke-miterlimit="10"/>
<path d="M248.546 397.862C241.896 397.087 235.466 394.999 229.628 391.719C223.791 388.44 218.663 384.034 214.541 378.758" stroke="#38303B" stroke-width="1.91041" stroke-miterlimit="10"/>
<path d="M574.73 776.277C574.73 776.277 513.062 780.403 482.342 709.03C482.266 709.03 544.24 703.222 574.73 776.277Z" fill="#332C33"/>
<path d="M518.831 717.742C518.831 717.742 500.071 738.794 489.678 748.308C479.285 757.822 486.277 775.245 470.574 816.586C466.333 827.629 484.023 817.198 486.927 799.889C486.927 799.889 490.748 830.456 487.729 841.651C485.513 849.751 509.088 834.009 502.096 804.13C502.096 804.13 511.189 830.379 515.469 847.229C517.303 854.527 529.949 815.746 512.985 800.883C512.985 800.883 534.229 814.676 541.068 822.47C547.907 830.265 550.314 806.652 521.964 792.401C521.964 792.401 535.872 777.767 531.822 760.267L548.633 741.966C542.225 730.325 531.536 721.636 518.831 717.742Z" fill="#FF9785"/>
<path d="M472.407 228.638C472.407 228.638 516.576 236.624 541.182 260.236C565.788 283.849 625.24 437.637 654.508 470C683.775 502.362 723.283 550.542 706.127 571.29C658.711 628.602 669.142 672.771 648.165 683.736C639.072 688.512 634.487 678.807 625.24 685.494C615.994 692.18 627.151 701.618 622.336 710.711C607.735 733.459 591.84 755.35 574.729 776.277C574.729 776.277 533.12 713.73 482.342 709.03L519.556 669.408C521.262 664.863 521.262 659.854 519.556 655.309C515.735 642.739 528.803 643.847 528.803 643.847C528.803 643.847 532.624 616.643 535.222 605.218C537.82 593.794 566.667 593.03 575.379 562.463C575.379 562.463 535.413 502.859 455.252 393.965C407.683 329.24 436.415 259.969 472.407 228.638Z" fill="#3A2773"/>
<path d="M575.34 562.349C585.657 551.345 584.166 534.113 595.705 524.141C598.112 522.116 602.086 520.817 604.149 523.224C604.781 524.09 605.224 525.079 605.448 526.127C606.939 531.706 607.894 538.851 603.118 542.06C598.074 543.398 600.367 532.623 599.679 531.438" stroke="#38303B" stroke-width="1.91041" stroke-miterlimit="10"/>
<path d="M601.626 741.202C601.626 741.202 568.385 682.323 509.926 679.763" stroke="white" stroke-width="1.91041" stroke-miterlimit="10"/>
<path d="M589.095 723.702L559.064 756.409" stroke="white" stroke-width="1.91041" stroke-miterlimit="10"/>
<path d="M566.783 702L537.325 735.126" stroke="white" stroke-width="1.91041" stroke-miterlimit="10"/>
<path d="M538.507 685.799L514.321 719.308" stroke="white" stroke-width="1.91041" stroke-miterlimit="10"/>
<path d="M519.364 680.718L494.835 711.361" stroke="white" stroke-width="1.91041" stroke-miterlimit="10"/>
<path d="M313.079 203.726C313.079 203.726 314.149 263.407 361.527 272.921C374.928 275.803 388.638 276.984 402.334 276.436C413.398 276.017 424.301 273.65 434.543 269.444C443.493 265.888 451.536 260.379 458.087 253.32C464.637 246.26 469.53 237.828 472.408 228.638L447.687 222.334L432.404 218.513L382.274 205.751L378.454 128.647L322.708 139.154L313.079 203.726Z" fill="#FF9785"/>
<path d="M322.937 139.193L366.113 141.485C366.113 141.485 362.483 194.442 315.487 187.832L322.937 139.193Z" fill="#332C33"/>
<path d="M402.335 276.437C413.399 276.017 424.302 273.65 434.544 269.445L447.688 222.334L432.405 218.513C421.63 251.945 408.525 269.521 402.335 276.437Z" fill="#68F285"/>
<path d="M307.539 167.62C331.916 180.305 366.38 163.455 377.231 139.536C388.082 115.618 385.331 79.7406 369.092 58.6497C357.133 43.1371 303.489 35.4573 295.351 80.4666C293.364 91.4705 291.53 101.557 290.536 110.689C289.849 116.191 289.352 121.349 289.161 125.973C288.435 146.032 292.752 159.978 307.539 167.62Z" fill="#FF9785"/>
<path d="M317.588 76.7223C322.746 79.9318 329.585 79.2059 334.896 82.2243C340.207 85.2428 342.538 91.0122 346.358 95.6354C356.216 107.786 373.104 110.919 388.655 113.402C389.34 113.622 390.066 113.678 390.777 113.565C391.487 113.452 392.161 113.174 392.743 112.753C393.39 112.022 393.768 111.091 393.813 110.116C396.45 94.5022 394.083 78.4541 387.05 64.2664C383.499 57.2637 378.529 51.0761 372.458 46.0968C366.387 41.1175 359.347 37.4553 351.784 35.3428C340.704 32.5154 319.154 33.1649 311.895 44.1307C306.507 52.3837 309.144 71.526 317.588 76.7223Z" fill="#5FDF7A"/>
<path d="M361.259 126.546C360.992 130.825 355.834 134.188 349.797 133.92C343.76 133.653 339.06 130.099 339.366 125.782C339.672 121.464 344.792 118.14 350.828 118.408C356.865 118.675 361.565 122.228 361.259 126.546Z" fill="#FF755C"/>
<path d="M289.161 126.125C294.968 126.125 299.782 122.916 300.088 118.751C300.394 114.587 296.267 111.11 290.536 110.689C289.848 116.191 289.352 121.349 289.161 126.125Z" fill="#FF755C"/>
<path d="M340.895 105.188C340.666 107.251 339.176 109.008 337.61 108.588C336.753 108.347 336.026 107.78 335.583 107.008C335.14 106.237 335.017 105.323 335.241 104.462C335.508 102.36 336.96 100.641 338.527 101.023C339.386 101.273 340.113 101.847 340.556 102.625C340.998 103.402 341.12 104.322 340.895 105.188Z" fill="#332C33"/>
<path d="M307.538 102.398C307.27 104.5 305.78 106.219 304.213 105.837C303.36 105.579 302.638 105.003 302.197 104.228C301.756 103.453 301.63 102.538 301.845 101.672C302.112 99.6091 303.602 97.8516 305.169 98.2719C306.025 98.5132 306.752 99.0804 307.195 99.8518C307.638 100.623 307.761 101.537 307.538 102.398Z" fill="#332C33"/>
<path d="M335.851 95.6354C343.493 87.2678 347.81 100.45 346.32 97.4694" stroke="#A15F6E" stroke-width="2.86562" stroke-linecap="round" stroke-linejoin="round"/>
<path d="M301.999 90.2479C309.64 81.8803 313.958 95.0621 312.468 92.0819" stroke="#A15F6E" stroke-width="2.86562" stroke-linecap="round" stroke-linejoin="round"/>
<path d="M380.975 108.855C396.487 102.093 410.815 99.4943 410.089 118.407C410.125 122.434 409.075 126.396 407.048 129.876C405.021 133.356 402.094 136.224 398.574 138.18C395.054 140.136 391.071 141.106 387.046 140.988C383.021 140.871 379.102 139.669 375.702 137.512C362.023 128.609 369.665 113.822 380.975 108.855Z" fill="#FF9785"/>
<path d="M399.926 114.166C397.814 113.917 395.673 114.187 393.689 114.953C391.705 115.719 389.938 116.958 388.541 118.562C387.144 120.166 386.16 122.086 385.674 124.157C385.187 126.227 385.214 128.385 385.751 130.443" stroke="#332C33" stroke-width="1.91041" stroke-linecap="round" stroke-linejoin="round"/>
<path d="M387.088 120.356L393.622 124.559" stroke="#332C33" stroke-width="1.91041" stroke-linecap="round" stroke-linejoin="round"/>
<path d="M317.97 124.253C315.945 124.253 310.863 121.999 310.634 118.102C310.405 114.204 316.824 118.331 318.696 113.02L320.53 103.162" stroke="#332C33" stroke-width="1.91041" stroke-linecap="round" stroke-linejoin="round"/>
<path d="M337.073 137.511C327.106 138.885 316.973 138.458 307.156 136.25C307.156 136.25 309.984 152.451 324.312 151.534C336.347 150.884 337.073 137.511 337.073 137.511Z" fill="white"/>
</g>
<defs>
<clipPath id="clip0_131_61">
<rect width="849.866" height="1549" fill="white" transform="matrix(-1 0 0 1 849.866 0)"/>
</clipPath>
</defs>
</svg>
